<svg width="24" height="25" viewBox="0 0 24 25" fill="none" xmlns="http://www.w3.org/2000/svg">
<path d="M20.4697 2.96967L13.0606 10.3787L14.1213 11.4394L21.5303 4.03033C21.8232 3.73744 21.8232 3.26256 21.5303 2.96967C21.2374 2.67678 20.7626 2.67678 20.4697 2.96967Z" fill="#9F65FF"/>
<path d="M9.87864 13.5607L10.9393 14.6214L10.0389 15.5218C10.5472 16.2465 10.8252 17.1151 10.8252 18.0124C10.8252 18.7554 10.6345 19.4787 10.2804 20.1169C10.0075 20.6086 9.52835 20.8534 9.0496 20.8743C8.58672 20.8944 8.12499 20.7101 7.78706 20.3722L7.43924 20.0244L6.38441 21.0792C5.56617 21.8974 4.23954 21.8974 3.4213 21.0792C2.60306 20.261 2.60306 18.9343 3.4213 18.1161L4.47613 17.0612L4.12806 16.7132C3.79013 16.3753 3.6058 15.9135 3.62597 15.4506C3.64684 14.9719 3.89162 14.4927 4.38331 14.2199C5.02153 13.8657 5.74488 13.675 6.48789 13.675C7.38501 13.675 8.25348 13.953 8.97817 14.4612L9.87864 13.5607Z" fill="#9F65FF"/>
<path d="M2.96967 4.53033C2.67678 4.23744 2.67678 3.76256 2.96967 3.46967C3.26256 3.17678 3.73744 3.17678 4.03033 3.46967L15.0219 14.4613C15.7467 13.9529 16.6153 13.6749 17.5126 13.6749C18.2556 13.6749 18.9789 13.8656 19.6171 14.2197C20.1088 14.4926 20.3536 14.9718 20.3745 15.4505C20.3947 15.9134 20.2103 16.3751 19.8724 16.7131L19.524 17.0614L20.5787 18.1161C21.3969 18.9343 21.3969 20.261 20.5787 21.0792C19.7605 21.8974 18.4338 21.8974 17.6156 21.0792L16.5609 20.0245L16.2134 20.3721C15.8755 20.71 15.4137 20.8943 14.9508 20.8741C14.4721 20.8533 13.9929 20.6085 13.7201 20.1168C13.3659 19.4786 13.1753 18.7552 13.1753 18.0122C13.1753 17.1151 13.4532 16.2467 13.9613 15.522L2.96967 4.53033Z" fill="#9F65FF"/>
</svg>
