<svg width="24" height="25" viewBox="0 0 24 25" fill="none" xmlns="http://www.w3.org/2000/svg">
<path d="M7 2.56C7.2725 2.52083 7.55083 2.5 7.83333 2.5H16.1667C16.4492 2.5 16.7275 2.52083 17 2.56V10H14.5C14.5 8.62167 13.3783 7.5 12 7.5C10.6217 7.5 9.5 8.62167 9.5 10H7V2.56ZM18.6667 10H22V8.33333C22 6.01083 20.6358 4.00167 18.6667 3.06333V10ZM14.5 11.6667V12.5C14.5 13.8783 13.3783 15 12 15C10.6217 15 9.5 13.8783 9.5 12.5V11.6667H2V18.3333C2 20.345 3.43417 22.0292 5.33333 22.4158V14.1667C5.33333 13.7067 5.70583 13.3333 6.16667 13.3333C6.6275 13.3333 7 13.7067 7 14.1667V22.5H17V14.1667C17 13.7067 17.3725 13.3333 17.8333 13.3333C18.2942 13.3333 18.6667 13.7067 18.6667 14.1667V22.4158C20.5658 22.0283 22 20.345 22 18.3333V11.6667H14.5ZM5.33333 10V3.06333C3.36417 4.00167 2 6.01083 2 8.33333V10H5.33333ZM12 13.3333C12.46 13.3333 12.8333 12.9592 12.8333 12.5V10C12.8333 9.54083 12.46 9.16667 12 9.16667C11.54 9.16667 11.1667 9.54083 11.1667 10V12.5C11.1667 12.9592 11.54 13.3333 12 13.3333Z" fill="#9F65FF"/>
</svg>
