<svg width="160" height="28" viewBox="0 0 160 28" fill="none" xmlns="http://www.w3.org/2000/svg">
<g clip-path="url(#clip0_2483_84669)">
<path fill-rule="evenodd" clip-rule="evenodd" d="M92.8056 16.4951C95.5565 16.4951 97.5902 14.7082 97.5902 11.9362C97.5902 9.16416 95.5565 7.39844 92.8056 7.39844H85.5781V20.746H89.0696V16.4951H92.808H92.8056ZM92.8056 10.643C93.5862 10.643 94.0987 11.1156 94.0987 11.9362C94.0987 12.7567 93.5862 13.2505 92.8056 13.2505H89.0673V10.643H92.8056Z" fill="white"/>
<path fill-rule="evenodd" clip-rule="evenodd" d="M113.836 14.0734V7.39844H110.344V12.2653H104.554V7.39844H101.064V20.746H104.554V15.5099H110.344V20.746H113.836V14.0734Z" fill="white"/>
<path fill-rule="evenodd" clip-rule="evenodd" d="M117.885 20.746H128.912V17.7083H121.376V15.3266H128.503V12.2865H121.376V10.4385H128.872V7.39844H117.885V20.746Z" fill="white"/>
<path fill-rule="evenodd" clip-rule="evenodd" d="M131.494 19.9866V20.746H135.007L135.891 18.5688H141.969L142.853 20.746H146.466V19.9866L141.005 7.39844H136.857L131.496 19.9866H131.494ZM138.764 11.4236H139.072L140.734 15.5311H137.12L138.764 11.4236Z" fill="white"/>
<path fill-rule="evenodd" clip-rule="evenodd" d="M146.58 10.4385H151.097V20.746H154.588V10.4385H159.107V7.39844H146.58V10.4385Z" fill="white"/>
<path fill-rule="evenodd" clip-rule="evenodd" d="M34.8965 20.746H40.9343C45.0817 20.746 48.2652 18.2208 48.2652 14.0522C48.2652 9.88362 45.0817 7.39844 40.9343 7.39844H34.8965V20.746ZM40.9343 10.4361C43.1114 10.4361 44.7126 11.7081 44.7126 14.0499C44.7126 16.3916 43.1114 17.7059 40.9343 17.7059H38.388V10.4361H40.9343Z" fill="white"/>
<path fill-rule="evenodd" clip-rule="evenodd" d="M51.7676 20.746H55.2591V16.126H57.6408L60.8454 20.746H64.6849V19.9866L61.4191 15.5499V15.4277C63.0626 14.8328 64.1512 13.4362 64.1512 11.567C64.1512 8.99958 62.1174 7.39844 59.3665 7.39844H51.7676V20.746ZM59.3665 10.643C60.1471 10.643 60.6597 11.0545 60.6597 11.7528C60.6597 12.4511 60.1471 12.8813 59.3665 12.8813H55.2591V10.643H59.3665Z" fill="white"/>
<path fill-rule="evenodd" clip-rule="evenodd" d="M74.6994 20.9925C78.9292 20.9925 82.0727 18.2605 82.0727 13.9908H78.5201C78.5201 16.3513 77.0012 17.7479 74.6994 17.7479C72.3976 17.7479 70.8788 16.3513 70.8788 13.9908C70.8788 11.6302 72.3976 10.2524 74.6994 10.2524C77.0012 10.2524 78.5201 11.649 78.5201 13.9908H82.0727C82.0727 9.7187 78.9315 7.00781 74.6994 7.00781C70.4673 7.00781 67.3262 9.7187 67.3262 13.9908C67.3262 18.2628 70.4485 20.9925 74.6994 20.9925Z" fill="white"/>
<path fill-rule="evenodd" clip-rule="evenodd" d="M0 12.5317C4.28382 12.5317 6.47981 9.18599 6.47981 5.32068H12.4C16.5498 5.32068 19.6299 7.17105 20.9254 10.3357C21.9998 12.1978 23.6198 12.5293 28.094 12.5293C27.4075 4.88807 21.3392 0 12.7198 0H0V12.5317Z" fill="#806BFF"/>
<path fill-rule="evenodd" clip-rule="evenodd" d="M16.0532 20.9551C22.747 15.8978 13.3611 11.7033 14.2828 6.69531C12.8462 8.01902 11.6095 9.12642 11.1816 10.6946C10.5891 12.8554 11.6636 13.8311 11.144 14.4001C10.8689 14.701 9.87907 13.6054 9.74505 13.1751C7.57023 15.8296 7.86647 18.4558 11.2945 21.3078C10.7302 20.5648 9.75446 19.0178 10.1824 18.2278C10.5515 17.5412 11.7435 18.4018 12.5382 17.5835C12.7569 17.3578 12.8886 17.0357 12.9379 16.6172C13.0837 15.3382 12.2396 14.5035 13.1942 12.498C14.1723 14.1979 18.1269 19.0577 16.0532 20.9598V20.9551Z" fill="white"/>
<path fill-rule="evenodd" clip-rule="evenodd" d="M0 15.4688C4.28382 15.4688 6.47981 18.8145 6.47981 22.6798H12.4C16.5498 22.6798 19.6299 20.8294 20.9254 17.6647C21.9998 15.8026 23.6198 15.4711 28.094 15.4711C27.4075 23.1147 21.3392 28.0028 12.7198 28.0028H0V15.4711V15.4688Z" fill="#806BFF"/>
</g>
<defs>
<clipPath id="clip0_2483_84669">
<rect width="159.108" height="28" fill="white"/>
</clipPath>
</defs>
</svg>
